<svg preserveAspectRatio="none" width="100%" height="100%" overflow="visible" style="display: block;" viewBox="0 0 95.0008 88.5312" fill="none" xmlns="http://www.w3.org/2000/svg">
<g id="Group 62">
<path id="Vector 184" d="M11 8.78125L82 8.78126" stroke="var(--stroke-0, #B1C1FF)" stroke-width="7"/>
<path id="Vector 186" d="M47.1999 47.0102L47.1999 24.3786" stroke="var(--stroke-0, #B1C1FF)" stroke-width="7"/>
<circle id="Ellipse 72" cx="8.6" cy="8.6" r="5.1" stroke="var(--stroke-0, #B1C1FF)" stroke-width="7"/>
<circle id="Ellipse 77" cx="8.86563" cy="48.1312" r="5.1" stroke="var(--stroke-0, #B1C1FF)" stroke-width="7"/>
<path id="Ellipse 76" d="M47.2 48.6997C50.2666 48.6997 52.7528 51.1858 52.7528 54.2524C52.7527 57.319 50.2666 59.8051 47.2 59.8051C44.1334 59.8051 41.6474 57.319 41.6473 54.2524C41.6473 51.1858 44.1334 48.6997 47.2 48.6997Z" stroke="var(--stroke-0, #B1C1FF)" stroke-width="7"/>
<circle id="Ellipse 75" cx="85.6665" cy="48.3681" r="5.1" stroke="var(--stroke-0, #B1C1FF)" stroke-width="7"/>
<circle id="Ellipse 73" cx="86.4008" cy="8.63125" r="5.1" stroke="var(--stroke-0, #B1C1FF)" stroke-width="7"/>
<path id="Subtract" d="M47.4101 8.0956C69.7499 8.57885 87.6859 24.195 87.6865 43.3886H80.6865C80.6859 28.7523 66.3876 15.0841 46.3437 15.0839C26.2995 15.0839 12.0005 28.7521 11.9999 43.3886H4.99995C5.0005 23.8904 23.5108 8.08388 46.3437 8.08388L47.4101 8.0956Z" fill="var(--fill-0, #B1C1FF)"/>
<path id="Vector 185" d="M47.1929 20.7576C47.1929 20.7576 26.3647 46.1049 26.3718 56.8875C26.3789 67.6701 37.661 68.6818 37.661 68.6818V85.0312H57.1508V68.6818C57.1508 68.6818 68.0139 68.1227 68.0139 56.8875C68.0139 45.6523 47.1929 20.7576 47.1929 20.7576Z" stroke="var(--stroke-0, #B1C1FF)" stroke-width="7" stroke-linecap="round"/>
</g>
</svg>
